<svg xmlns="http://www.w3.org/2000/svg" viewBox="0 0 540 300" preserveAspectRatio="xMidYMid slice"><rect width="540" height="300" fill="#284F3C"></rect><path d="M-20 70 L-20 69.20 L-17 69.80 L-14 70.40 L-11 71.00 L-8 71.60 L-5 72.19 L-2 72.79 L1 73.37 L4 73.96 L7 74.54 L10 75.11 L13 75.67 L16 76.23 L19 76.78 L22 77.32 L25 77.85 L28 78.36 L31 78.87 L34 79.36 L37 79.84 L40 80.31 L43 80.76 L46 81.20 L49 81.62 L52 82.02 L55 82.41 L58 82.78 L61 83.13 L64 83.46 L67 83.78 L70 84.07 L73 84.35 L76 84.60 L79 84.84 L82 85.05 L85 85.25 L88 85.42 L91 85.57 L94 85.69 L97 85.80 L100 85.88 L103 85.94 L106 85.98 L109 86.00 L112 85.99 L115 85.96 L118 85.91 L121 85.84 L124 85.74 L127 85.63 L130 85.49 L133 85.32 L136 85.14 L139 84.94 L142 84.71 L145 84.46 L148 84.20 L151 83.91 L154 83.61 L157 83.28 L160 82.94 L163 82.57 L166 82.19 L169 81.80 L172 81.38 L175 80.95 L178 80.51 L181 80.05 L184 79.58 L187 79.09 L190 78.59 L193 78.08 L196 77.55 L199 77.02 L202 76.47 L205 75.92 L208 75.36 L211 74.79 L214 74.22 L217 73.63 L220 73.05 L223 72.46 L226 71.86 L229 71.26 L232 70.67 L235 70.07 L238 69.47 L241 68.87 L244 68.27 L247 67.67 L250 67.08 L253 66.49 L256 65.91 L259 65.33 L262 64.76 L265 64.20 L268 63.65 L271 63.10 L274 62.56 L277 62.04 L280 61.52 L283 61.02 L286 60.53 L289 60.05 L292 59.59 L295 59.14 L298 58.71 L301 58.29 L304 57.89 L307 57.51 L310 57.14 L313 56.79 L316 56.46 L319 56.15 L322 55.86 L325 55.59 L328 55.34 L331 55.11 L334 54.90 L337 54.71 L340 54.55 L343 54.40 L346 54.28 L349 54.18 L352 54.10 L355 54.04 L358 54.01 L361 54.00 L364 54.01 L367 54.05 L370 54.10 L373 54.18 L376 54.28 L379 54.40 L382 54.55 L385 54.72 L388 54.90 L391 55.11 L394 55.34 L397 55.59 L400 55.86 L403 56.16 L406 56.47 L409 56.80 L412 57.14 L415 57.51 L418 57.89 L421 58.29 L424 58.71 L427 59.14 L430 59.59 L433 60.06 L436 60.53 L439 61.02 L442 61.53 L445 62.04 L448 62.57 L451 63.10 L454 63.65 L457 64.20 L460 64.77 L463 65.34 L466 65.91 L469 66.50 L472 67.09 L475 67.68 L478 68.27 L481 68.87 L484 69.47 L487 70.07 L490 70.67 L493 71.27 L496 71.86 L499 72.46 L502 73.05 L505 73.64 L508 74.22 L511 74.79 L514 75.36 L517 75.92 L520 76.48 L523 77.02 L526 77.56 L529 78.08 L532 78.59 L535 79.09 L538 79.58 L541 80.05 L544 80.51 L547 80.96 L550 81.39 L553 81.80 L556 82.20 L559 82.58 L560 320 L-20 320 Z" fill="#2E5844"></path><path d="M-20 69.20 L-17 69.80 L-14 70.40 L-11 71.00 L-8 71.60 L-5 72.19 L-2 72.79 L1 73.37 L4 73.96 L7 74.54 L10 75.11 L13 75.67 L16 76.23 L19 76.78 L22 77.32 L25 77.85 L28 78.36 L31 78.87 L34 79.36 L37 79.84 L40 80.31 L43 80.76 L46 81.20 L49 81.62 L52 82.02 L55 82.41 L58 82.78 L61 83.13 L64 83.46 L67 83.78 L70 84.07 L73 84.35 L76 84.60 L79 84.84 L82 85.05 L85 85.25 L88 85.42 L91 85.57 L94 85.69 L97 85.80 L100 85.88 L103 85.94 L106 85.98 L109 86.00 L112 85.99 L115 85.96 L118 85.91 L121 85.84 L124 85.74 L127 85.63 L130 85.49 L133 85.32 L136 85.14 L139 84.94 L142 84.71 L145 84.46 L148 84.20 L151 83.91 L154 83.61 L157 83.28 L160 82.94 L163 82.57 L166 82.19 L169 81.80 L172 81.38 L175 80.95 L178 80.51 L181 80.05 L184 79.58 L187 79.09 L190 78.59 L193 78.08 L196 77.55 L199 77.02 L202 76.47 L205 75.92 L208 75.36 L211 74.79 L214 74.22 L217 73.63 L220 73.05 L223 72.46 L226 71.86 L229 71.26 L232 70.67 L235 70.07 L238 69.47 L241 68.87 L244 68.27 L247 67.67 L250 67.08 L253 66.49 L256 65.91 L259 65.33 L262 64.76 L265 64.20 L268 63.65 L271 63.10 L274 62.56 L277 62.04 L280 61.52 L283 61.02 L286 60.53 L289 60.05 L292 59.59 L295 59.14 L298 58.71 L301 58.29 L304 57.89 L307 57.51 L310 57.14 L313 56.79 L316 56.46 L319 56.15 L322 55.86 L325 55.59 L328 55.34 L331 55.11 L334 54.90 L337 54.71 L340 54.55 L343 54.40 L346 54.28 L349 54.18 L352 54.10 L355 54.04 L358 54.01 L361 54.00 L364 54.01 L367 54.05 L370 54.10 L373 54.18 L376 54.28 L379 54.40 L382 54.55 L385 54.72 L388 54.90 L391 55.11 L394 55.34 L397 55.59 L400 55.86 L403 56.16 L406 56.47 L409 56.80 L412 57.14 L415 57.51 L418 57.89 L421 58.29 L424 58.71 L427 59.14 L430 59.59 L433 60.06 L436 60.53 L439 61.02 L442 61.53 L445 62.04 L448 62.57 L451 63.10 L454 63.65 L457 64.20 L460 64.77 L463 65.34 L466 65.91 L469 66.50 L472 67.09 L475 67.68 L478 68.27 L481 68.87 L484 69.47 L487 70.07 L490 70.67 L493 71.27 L496 71.86 L499 72.46 L502 73.05 L505 73.64 L508 74.22 L511 74.79 L514 75.36 L517 75.92 L520 76.48 L523 77.02 L526 77.56 L529 78.08 L532 78.59 L535 79.09 L538 79.58 L541 80.05 L544 80.51 L547 80.96 L550 81.39 L553 81.80 L556 82.20 L559 82.58 " fill="none" stroke="#3C6A52" stroke-width="1.1" opacity="0.6"></path><path d="M-20 110 L-20 123.52 L-17 123.78 L-14 124.01 L-11 124.22 L-8 124.41 L-5 124.57 L-2 124.71 L1 124.82 L4 124.90 L7 124.96 L10 124.99 L13 125.00 L16 124.98 L19 124.94 L22 124.86 L25 124.77 L28 124.64 L31 124.50 L34 124.32 L37 124.13 L40 123.90 L43 123.66 L46 123.39 L49 123.09 L52 122.78 L55 122.44 L58 122.08 L61 121.70 L64 121.30 L67 120.88 L70 120.44 L73 119.98 L76 119.50 L79 119.01 L82 118.50 L85 117.98 L88 117.45 L91 116.90 L94 116.34 L97 115.76 L100 115.18 L103 114.59 L106 113.99 L109 113.39 L112 112.77 L115 112.16 L118 111.54 L121 110.91 L124 110.29 L127 109.67 L130 109.04 L133 108.42 L136 107.80 L139 107.18 L142 106.57 L145 105.97 L148 105.37 L151 104.78 L154 104.20 L157 103.62 L160 103.06 L163 102.52 L166 101.98 L169 101.46 L172 100.95 L175 100.46 L178 99.99 L181 99.53 L184 99.09 L187 98.68 L190 98.28 L193 97.90 L196 97.54 L199 97.20 L202 96.89 L205 96.59 L208 96.33 L211 96.08 L214 95.86 L217 95.66 L220 95.49 L223 95.35 L226 95.23 L229 95.13 L232 95.06 L235 95.02 L238 95.00 L241 95.01 L244 95.04 L247 95.10 L250 95.19 L253 95.30 L256 95.44 L259 95.60 L262 95.79 L265 96.01 L268 96.24 L271 96.50 L274 96.79 L277 97.09 L280 97.42 L283 97.78 L286 98.15 L289 98.54 L292 98.96 L295 99.39 L298 99.84 L301 100.31 L304 100.79 L307 101.29 L310 101.81 L313 102.34 L316 102.88 L319 103.44 L322 104.01 L325 104.59 L328 105.17 L331 105.77 L334 106.37 L337 106.98 L340 107.60 L343 108.21 L346 108.84 L349 109.46 L352 110.09 L355 110.71 L358 111.33 L361 111.95 L364 112.57 L367 113.19 L370 113.79 L373 114.40 L376 114.99 L379 115.57 L382 116.15 L385 116.71 L388 117.27 L391 117.81 L394 118.33 L397 118.85 L400 119.34 L403 119.82 L406 120.29 L409 120.73 L412 121.16 L415 121.57 L418 121.96 L421 122.32 L424 122.67 L427 122.99 L430 123.29 L433 123.57 L436 123.83 L439 124.06 L442 124.26 L445 124.44 L448 124.60 L451 124.73 L454 124.84 L457 124.91 L460 124.97 L463 125.00 L466 125.00 L469 124.97 L472 124.92 L475 124.85 L478 124.74 L481 124.62 L484 124.46 L487 124.29 L490 124.08 L493 123.86 L496 123.60 L499 123.33 L502 123.03 L505 122.71 L508 122.37 L511 122.00 L514 121.62 L517 121.21 L520 120.79 L523 120.34 L526 119.88 L529 119.40 L532 118.91 L535 118.40 L538 117.87 L541 117.33 L544 116.78 L547 116.22 L550 115.65 L553 115.06 L556 114.47 L559 113.87 L560 320 L-20 320 Z" fill="#2B5440"></path><path d="M-20 123.52 L-17 123.78 L-14 124.01 L-11 124.22 L-8 124.41 L-5 124.57 L-2 124.71 L1 124.82 L4 124.90 L7 124.96 L10 124.99 L13 125.00 L16 124.98 L19 124.94 L22 124.86 L25 124.77 L28 124.64 L31 124.50 L34 124.32 L37 124.13 L40 123.90 L43 123.66 L46 123.39 L49 123.09 L52 122.78 L55 122.44 L58 122.08 L61 121.70 L64 121.30 L67 120.88 L70 120.44 L73 119.98 L76 119.50 L79 119.01 L82 118.50 L85 117.98 L88 117.45 L91 116.90 L94 116.34 L97 115.76 L100 115.18 L103 114.59 L106 113.99 L109 113.39 L112 112.77 L115 112.16 L118 111.54 L121 110.91 L124 110.29 L127 109.67 L130 109.04 L133 108.42 L136 107.80 L139 107.18 L142 106.57 L145 105.97 L148 105.37 L151 104.78 L154 104.20 L157 103.62 L160 103.06 L163 102.52 L166 101.98 L169 101.46 L172 100.95 L175 100.46 L178 99.99 L181 99.53 L184 99.09 L187 98.68 L190 98.28 L193 97.90 L196 97.54 L199 97.20 L202 96.89 L205 96.59 L208 96.33 L211 96.08 L214 95.86 L217 95.66 L220 95.49 L223 95.35 L226 95.23 L229 95.13 L232 95.06 L235 95.02 L238 95.00 L241 95.01 L244 95.04 L247 95.10 L250 95.19 L253 95.30 L256 95.44 L259 95.60 L262 95.79 L265 96.01 L268 96.24 L271 96.50 L274 96.79 L277 97.09 L280 97.42 L283 97.78 L286 98.15 L289 98.54 L292 98.96 L295 99.39 L298 99.84 L301 100.31 L304 100.79 L307 101.29 L310 101.81 L313 102.34 L316 102.88 L319 103.44 L322 104.01 L325 104.59 L328 105.17 L331 105.77 L334 106.37 L337 106.98 L340 107.60 L343 108.21 L346 108.84 L349 109.46 L352 110.09 L355 110.71 L358 111.33 L361 111.95 L364 112.57 L367 113.19 L370 113.79 L373 114.40 L376 114.99 L379 115.57 L382 116.15 L385 116.71 L388 117.27 L391 117.81 L394 118.33 L397 118.85 L400 119.34 L403 119.82 L406 120.29 L409 120.73 L412 121.16 L415 121.57 L418 121.96 L421 122.32 L424 122.67 L427 122.99 L430 123.29 L433 123.57 L436 123.83 L439 124.06 L442 124.26 L445 124.44 L448 124.60 L451 124.73 L454 124.84 L457 124.91 L460 124.97 L463 125.00 L466 125.00 L469 124.97 L472 124.92 L475 124.85 L478 124.74 L481 124.62 L484 124.46 L487 124.29 L490 124.08 L493 123.86 L496 123.60 L499 123.33 L502 123.03 L505 122.71 L508 122.37 L511 122.00 L514 121.62 L517 121.21 L520 120.79 L523 120.34 L526 119.88 L529 119.40 L532 118.91 L535 118.40 L538 117.87 L541 117.33 L544 116.78 L547 116.22 L550 115.65 L553 115.06 L556 114.47 L559 113.87 " fill="none" stroke="#39644E" stroke-width="1.1" opacity="0.6"></path><path d="M-20 150 L-20 161.88 L-17 161.45 L-14 161.01 L-11 160.55 L-8 160.08 L-5 159.60 L-2 159.10 L1 158.59 L4 158.08 L7 157.55 L10 157.01 L13 156.47 L16 155.92 L19 155.36 L22 154.79 L25 154.22 L28 153.64 L31 153.06 L34 152.48 L37 151.89 L40 151.30 L43 150.71 L46 150.11 L49 149.52 L52 148.93 L55 148.34 L58 147.75 L61 147.16 L64 146.58 L67 146.00 L70 145.43 L73 144.86 L76 144.30 L79 143.74 L82 143.19 L85 142.65 L88 142.12 L91 141.60 L94 141.09 L97 140.59 L100 140.11 L103 139.63 L106 139.17 L109 138.72 L112 138.28 L115 137.86 L118 137.45 L121 137.06 L124 136.68 L127 136.32 L130 135.98 L133 135.65 L136 135.34 L139 135.05 L142 134.78 L145 134.52 L148 134.29 L151 134.07 L154 133.87 L157 133.69 L160 133.54 L163 133.40 L166 133.28 L169 133.18 L172 133.11 L175 133.05 L178 133.02 L181 133.00 L184 133.01 L187 133.03 L190 133.08 L193 133.15 L196 133.24 L199 133.34 L202 133.47 L205 133.62 L208 133.79 L211 133.98 L214 134.19 L217 134.41 L220 134.66 L223 134.93 L226 135.21 L229 135.51 L232 135.83 L235 136.17 L238 136.52 L241 136.89 L244 137.27 L247 137.67 L250 138.09 L253 138.52 L256 138.96 L259 139.42 L262 139.89 L265 140.38 L268 140.87 L271 141.38 L274 141.89 L277 142.42 L280 142.95 L283 143.50 L286 144.05 L289 144.61 L292 145.17 L295 145.75 L298 146.32 L301 146.90 L304 147.49 L307 148.08 L310 148.67 L313 149.26 L316 149.85 L319 150.44 L322 151.04 L325 151.63 L328 152.22 L331 152.80 L334 153.39 L337 153.97 L340 154.54 L343 155.11 L346 155.67 L349 156.23 L352 156.77 L355 157.31 L358 157.84 L361 158.37 L364 158.88 L367 159.38 L370 159.87 L373 160.34 L376 160.81 L379 161.26 L382 161.70 L385 162.12 L388 162.53 L391 162.92 L394 163.30 L397 163.66 L400 164.00 L403 164.33 L406 164.64 L409 164.93 L412 165.21 L415 165.46 L418 165.70 L421 165.92 L424 166.12 L427 166.30 L430 166.45 L433 166.59 L436 166.71 L439 166.81 L442 166.89 L445 166.95 L448 166.98 L451 167.00 L454 166.99 L457 166.97 L460 166.92 L463 166.86 L466 166.77 L469 166.66 L472 166.54 L475 166.39 L478 166.22 L481 166.03 L484 165.83 L487 165.60 L490 165.35 L493 165.09 L496 164.81 L499 164.51 L502 164.19 L505 163.85 L508 163.50 L511 163.13 L514 162.75 L517 162.35 L520 161.93 L523 161.51 L526 161.06 L529 160.60 L532 160.14 L535 159.65 L538 159.16 L541 158.65 L544 158.14 L547 157.61 L550 157.08 L553 156.53 L556 155.98 L559 155.42 L560 320 L-20 320 Z" fill="#305C46"></path><path d="M-20 161.88 L-17 161.45 L-14 161.01 L-11 160.55 L-8 160.08 L-5 159.60 L-2 159.10 L1 158.59 L4 158.08 L7 157.55 L10 157.01 L13 156.47 L16 155.92 L19 155.36 L22 154.79 L25 154.22 L28 153.64 L31 153.06 L34 152.48 L37 151.89 L40 151.30 L43 150.71 L46 150.11 L49 149.52 L52 148.93 L55 148.34 L58 147.75 L61 147.16 L64 146.58 L67 146.00 L70 145.43 L73 144.86 L76 144.30 L79 143.74 L82 143.19 L85 142.65 L88 142.12 L91 141.60 L94 141.09 L97 140.59 L100 140.11 L103 139.63 L106 139.17 L109 138.72 L112 138.28 L115 137.86 L118 137.45 L121 137.06 L124 136.68 L127 136.32 L130 135.98 L133 135.65 L136 135.34 L139 135.05 L142 134.78 L145 134.52 L148 134.29 L151 134.07 L154 133.87 L157 133.69 L160 133.54 L163 133.40 L166 133.28 L169 133.18 L172 133.11 L175 133.05 L178 133.02 L181 133.00 L184 133.01 L187 133.03 L190 133.08 L193 133.15 L196 133.24 L199 133.34 L202 133.47 L205 133.62 L208 133.79 L211 133.98 L214 134.19 L217 134.41 L220 134.66 L223 134.93 L226 135.21 L229 135.51 L232 135.83 L235 136.17 L238 136.52 L241 136.89 L244 137.27 L247 137.67 L250 138.09 L253 138.52 L256 138.96 L259 139.42 L262 139.89 L265 140.38 L268 140.87 L271 141.38 L274 141.89 L277 142.42 L280 142.95 L283 143.50 L286 144.05 L289 144.61 L292 145.17 L295 145.75 L298 146.32 L301 146.90 L304 147.49 L307 148.08 L310 148.67 L313 149.26 L316 149.85 L319 150.44 L322 151.04 L325 151.63 L328 152.22 L331 152.80 L334 153.39 L337 153.97 L340 154.54 L343 155.11 L346 155.67 L349 156.23 L352 156.77 L355 157.31 L358 157.84 L361 158.37 L364 158.88 L367 159.38 L370 159.87 L373 160.34 L376 160.81 L379 161.26 L382 161.70 L385 162.12 L388 162.53 L391 162.92 L394 163.30 L397 163.66 L400 164.00 L403 164.33 L406 164.64 L409 164.93 L412 165.21 L415 165.46 L418 165.70 L421 165.92 L424 166.12 L427 166.30 L430 166.45 L433 166.59 L436 166.71 L439 166.81 L442 166.89 L445 166.95 L448 166.98 L451 167.00 L454 166.99 L457 166.97 L460 166.92 L463 166.86 L466 166.77 L469 166.66 L472 166.54 L475 166.39 L478 166.22 L481 166.03 L484 165.83 L487 165.60 L490 165.35 L493 165.09 L496 164.81 L499 164.51 L502 164.19 L505 163.85 L508 163.50 L511 163.13 L514 162.75 L517 162.35 L520 161.93 L523 161.51 L526 161.06 L529 160.60 L532 160.14 L535 159.65 L538 159.16 L541 158.65 L544 158.14 L547 157.61 L550 157.08 L553 156.53 L556 155.98 L559 155.42 " fill="none" stroke="#3E6A54" stroke-width="1.1" opacity="0.6"></path><path d="M-20 190 L-20 185.01 L-17 184.44 L-14 183.88 L-11 183.33 L-8 182.79 L-5 182.27 L-2 181.76 L1 181.27 L4 180.80 L7 180.34 L10 179.90 L13 179.49 L16 179.09 L19 178.71 L22 178.36 L25 178.03 L28 177.72 L31 177.43 L34 177.17 L37 176.94 L40 176.73 L43 176.55 L46 176.39 L49 176.26 L52 176.15 L55 176.08 L58 176.02 L61 176.00 L64 176.01 L67 176.04 L70 176.10 L73 176.18 L76 176.29 L79 176.43 L82 176.60 L85 176.79 L88 177.01 L91 177.25 L94 177.52 L97 177.81 L100 178.13 L103 178.46 L106 178.82 L109 179.21 L112 179.61 L115 180.04 L118 180.48 L121 180.94 L124 181.42 L127 181.92 L130 182.43 L133 182.96 L136 183.50 L139 184.05 L142 184.61 L145 185.19 L148 185.77 L151 186.37 L154 186.97 L157 187.57 L160 188.18 L163 188.80 L166 189.41 L169 190.03 L172 190.65 L175 191.26 L178 191.88 L181 192.49 L184 193.09 L187 193.69 L190 194.28 L193 194.87 L196 195.44 L199 196.00 L202 196.56 L205 197.10 L208 197.62 L211 198.13 L214 198.63 L217 199.10 L220 199.56 L223 200.01 L226 200.43 L229 200.83 L232 201.21 L235 201.57 L238 201.91 L241 202.22 L244 202.51 L247 202.77 L250 203.01 L253 203.23 L256 203.42 L259 203.58 L262 203.72 L265 203.83 L268 203.91 L271 203.97 L274 204.00 L277 204.00 L280 203.97 L283 203.92 L286 203.84 L289 203.73 L292 203.60 L295 203.44 L298 203.25 L301 203.04 L304 202.80 L307 202.54 L310 202.25 L313 201.94 L316 201.61 L319 201.25 L322 200.87 L325 200.47 L328 200.06 L331 199.62 L334 199.16 L337 198.68 L340 198.19 L343 197.68 L346 197.16 L349 196.62 L352 196.07 L355 195.51 L358 194.93 L361 194.35 L364 193.76 L367 193.16 L370 192.56 L373 191.95 L376 191.33 L379 190.72 L382 190.10 L385 189.48 L388 188.87 L391 188.25 L394 187.64 L397 187.03 L400 186.43 L403 185.84 L406 185.25 L409 184.68 L412 184.11 L415 183.56 L418 183.02 L421 182.49 L424 181.97 L427 181.48 L430 180.99 L433 180.53 L436 180.08 L439 179.66 L442 179.25 L445 178.87 L448 178.50 L451 178.16 L454 177.84 L457 177.55 L460 177.28 L463 177.03 L466 176.81 L469 176.62 L472 176.45 L475 176.31 L478 176.19 L481 176.10 L484 176.04 L487 176.01 L490 176.00 L493 176.02 L496 176.07 L499 176.14 L502 176.24 L505 176.37 L508 176.53 L511 176.71 L514 176.91 L517 177.15 L520 177.40 L523 177.68 L526 177.99 L529 178.32 L532 178.67 L535 179.04 L538 179.44 L541 179.86 L544 180.29 L547 180.74 L550 181.22 L553 181.71 L556 182.21 L559 182.73 L560 320 L-20 320 Z" fill="#2C5641"></path><path d="M-20 185.01 L-17 184.44 L-14 183.88 L-11 183.33 L-8 182.79 L-5 182.27 L-2 181.76 L1 181.27 L4 180.80 L7 180.34 L10 179.90 L13 179.49 L16 179.09 L19 178.71 L22 178.36 L25 178.03 L28 177.72 L31 177.43 L34 177.17 L37 176.94 L40 176.73 L43 176.55 L46 176.39 L49 176.26 L52 176.15 L55 176.08 L58 176.02 L61 176.00 L64 176.01 L67 176.04 L70 176.10 L73 176.18 L76 176.29 L79 176.43 L82 176.60 L85 176.79 L88 177.01 L91 177.25 L94 177.52 L97 177.81 L100 178.13 L103 178.46 L106 178.82 L109 179.21 L112 179.61 L115 180.04 L118 180.48 L121 180.94 L124 181.42 L127 181.92 L130 182.43 L133 182.96 L136 183.50 L139 184.05 L142 184.61 L145 185.19 L148 185.77 L151 186.37 L154 186.97 L157 187.57 L160 188.18 L163 188.80 L166 189.41 L169 190.03 L172 190.65 L175 191.26 L178 191.88 L181 192.49 L184 193.09 L187 193.69 L190 194.28 L193 194.87 L196 195.44 L199 196.00 L202 196.56 L205 197.10 L208 197.62 L211 198.13 L214 198.63 L217 199.10 L220 199.56 L223 200.01 L226 200.43 L229 200.83 L232 201.21 L235 201.57 L238 201.91 L241 202.22 L244 202.51 L247 202.77 L250 203.01 L253 203.23 L256 203.42 L259 203.58 L262 203.72 L265 203.83 L268 203.91 L271 203.97 L274 204.00 L277 204.00 L280 203.97 L283 203.92 L286 203.84 L289 203.73 L292 203.60 L295 203.44 L298 203.25 L301 203.04 L304 202.80 L307 202.54 L310 202.25 L313 201.94 L316 201.61 L319 201.25 L322 200.87 L325 200.47 L328 200.06 L331 199.62 L334 199.16 L337 198.68 L340 198.19 L343 197.68 L346 197.16 L349 196.62 L352 196.07 L355 195.51 L358 194.93 L361 194.35 L364 193.76 L367 193.16 L370 192.56 L373 191.95 L376 191.33 L379 190.72 L382 190.10 L385 189.48 L388 188.87 L391 188.25 L394 187.64 L397 187.03 L400 186.43 L403 185.84 L406 185.25 L409 184.68 L412 184.11 L415 183.56 L418 183.02 L421 182.49 L424 181.97 L427 181.48 L430 180.99 L433 180.53 L436 180.08 L439 179.66 L442 179.25 L445 178.87 L448 178.50 L451 178.16 L454 177.84 L457 177.55 L460 177.28 L463 177.03 L466 176.81 L469 176.62 L472 176.45 L475 176.31 L478 176.19 L481 176.10 L484 176.04 L487 176.01 L490 176.00 L493 176.02 L496 176.07 L499 176.14 L502 176.24 L505 176.37 L508 176.53 L511 176.71 L514 176.91 L517 177.15 L520 177.40 L523 177.68 L526 177.99 L529 178.32 L532 178.67 L535 179.04 L538 179.44 L541 179.86 L544 180.29 L547 180.74 L550 181.22 L553 181.71 L556 182.21 L559 182.73 " fill="none" stroke="#3A664E" stroke-width="1.1" opacity="0.6"></path><path d="M-20 230 L-20 240.83 L-17 241.28 L-14 241.70 L-11 242.11 L-8 242.51 L-5 242.88 L-2 243.24 L1 243.57 L4 243.89 L7 244.18 L10 244.46 L13 244.71 L16 244.94 L19 245.15 L22 245.34 L25 245.50 L28 245.64 L31 245.76 L34 245.85 L37 245.93 L40 245.97 L43 246.00 L46 246.00 L49 245.97 L52 245.93 L55 245.86 L58 245.76 L61 245.64 L64 245.50 L67 245.34 L70 245.15 L73 244.95 L76 244.71 L79 244.46 L82 244.19 L85 243.89 L88 243.58 L91 243.24 L94 242.89 L97 242.51 L100 242.12 L103 241.71 L106 241.28 L109 240.84 L112 240.38 L115 239.90 L118 239.41 L121 238.91 L124 238.39 L127 237.86 L130 237.32 L133 236.76 L136 236.20 L139 235.63 L142 235.05 L145 234.46 L148 233.87 L151 233.27 L154 232.66 L157 232.05 L160 231.44 L163 230.83 L166 230.21 L169 229.60 L172 228.98 L175 228.37 L178 227.76 L181 227.15 L184 226.55 L187 225.95 L190 225.36 L193 224.77 L196 224.20 L199 223.63 L202 223.07 L205 222.52 L208 221.98 L211 221.45 L214 220.94 L217 220.44 L220 219.95 L223 219.48 L226 219.03 L229 218.59 L232 218.16 L235 217.76 L238 217.37 L241 217.00 L244 216.65 L247 216.32 L250 216.01 L253 215.73 L256 215.46 L259 215.21 L262 214.99 L265 214.79 L268 214.61 L271 214.45 L274 214.32 L277 214.21 L280 214.12 L283 214.06 L286 214.02 L289 214.00 L292 214.01 L295 214.04 L298 214.09 L301 214.17 L304 214.27 L307 214.40 L310 214.55 L313 214.72 L316 214.91 L319 215.13 L322 215.36 L325 215.62 L328 215.90 L331 216.20 L334 216.53 L337 216.87 L340 217.23 L343 217.61 L346 218.01 L349 218.42 L352 218.86 L355 219.31 L358 219.77 L361 220.25 L364 220.75 L367 221.26 L370 221.78 L373 222.31 L376 222.86 L379 223.41 L382 223.98 L385 224.55 L388 225.14 L391 225.73 L394 226.32 L397 226.92 L400 227.53 L403 228.14 L406 228.75 L409 229.37 L412 229.98 L415 230.60 L418 231.21 L421 231.82 L424 232.43 L427 233.04 L430 233.64 L433 234.24 L436 234.83 L439 235.41 L442 235.99 L445 236.55 L448 237.11 L451 237.65 L454 238.19 L457 238.71 L460 239.22 L463 239.72 L466 240.20 L469 240.67 L472 241.12 L475 241.55 L478 241.97 L481 242.37 L484 242.75 L487 243.11 L490 243.45 L493 243.78 L496 244.08 L499 244.36 L502 244.62 L505 244.86 L508 245.08 L511 245.27 L514 245.44 L517 245.59 L520 245.72 L523 245.82 L526 245.90 L529 245.96 L532 245.99 L535 246.00 L538 245.98 L541 245.95 L544 245.88 L547 245.80 L550 245.69 L553 245.56 L556 245.40 L559 245.22 L560 320 L-20 320 Z" fill="#315E47"></path><path d="M-20 240.83 L-17 241.28 L-14 241.70 L-11 242.11 L-8 242.51 L-5 242.88 L-2 243.24 L1 243.57 L4 243.89 L7 244.18 L10 244.46 L13 244.71 L16 244.94 L19 245.15 L22 245.34 L25 245.50 L28 245.64 L31 245.76 L34 245.85 L37 245.93 L40 245.97 L43 246.00 L46 246.00 L49 245.97 L52 245.93 L55 245.86 L58 245.76 L61 245.64 L64 245.50 L67 245.34 L70 245.15 L73 244.95 L76 244.71 L79 244.46 L82 244.19 L85 243.89 L88 243.58 L91 243.24 L94 242.89 L97 242.51 L100 242.12 L103 241.71 L106 241.28 L109 240.84 L112 240.38 L115 239.90 L118 239.41 L121 238.91 L124 238.39 L127 237.86 L130 237.32 L133 236.76 L136 236.20 L139 235.63 L142 235.05 L145 234.46 L148 233.87 L151 233.27 L154 232.66 L157 232.05 L160 231.44 L163 230.83 L166 230.21 L169 229.60 L172 228.98 L175 228.37 L178 227.76 L181 227.15 L184 226.55 L187 225.95 L190 225.36 L193 224.77 L196 224.20 L199 223.63 L202 223.07 L205 222.52 L208 221.98 L211 221.45 L214 220.94 L217 220.44 L220 219.95 L223 219.48 L226 219.03 L229 218.59 L232 218.16 L235 217.76 L238 217.37 L241 217.00 L244 216.65 L247 216.32 L250 216.01 L253 215.73 L256 215.46 L259 215.21 L262 214.99 L265 214.79 L268 214.61 L271 214.45 L274 214.32 L277 214.21 L280 214.12 L283 214.06 L286 214.02 L289 214.00 L292 214.01 L295 214.04 L298 214.09 L301 214.17 L304 214.27 L307 214.40 L310 214.55 L313 214.72 L316 214.91 L319 215.13 L322 215.36 L325 215.62 L328 215.90 L331 216.20 L334 216.53 L337 216.87 L340 217.23 L343 217.61 L346 218.01 L349 218.42 L352 218.86 L355 219.31 L358 219.77 L361 220.25 L364 220.75 L367 221.26 L370 221.78 L373 222.31 L376 222.86 L379 223.41 L382 223.98 L385 224.55 L388 225.14 L391 225.73 L394 226.32 L397 226.92 L400 227.53 L403 228.14 L406 228.75 L409 229.37 L412 229.98 L415 230.60 L418 231.21 L421 231.82 L424 232.43 L427 233.04 L430 233.64 L433 234.24 L436 234.83 L439 235.41 L442 235.99 L445 236.55 L448 237.11 L451 237.65 L454 238.19 L457 238.71 L460 239.22 L463 239.72 L466 240.20 L469 240.67 L472 241.12 L475 241.55 L478 241.97 L481 242.37 L484 242.75 L487 243.11 L490 243.45 L493 243.78 L496 244.08 L499 244.36 L502 244.62 L505 244.86 L508 245.08 L511 245.27 L514 245.44 L517 245.59 L520 245.72 L523 245.82 L526 245.90 L529 245.96 L532 245.99 L535 246.00 L538 245.98 L541 245.95 L544 245.88 L547 245.80 L550 245.69 L553 245.56 L556 245.40 L559 245.22 " fill="none" stroke="#3F6C55" stroke-width="1.1" opacity="0.6"></path><path d="M-20 270 L-20 258.16 L-17 257.92 L-14 257.71 L-11 257.52 L-8 257.36 L-5 257.24 L-2 257.13 L1 257.06 L4 257.02 L7 257.00 L10 257.01 L13 257.05 L16 257.12 L19 257.22 L22 257.35 L25 257.50 L28 257.68 L31 257.89 L34 258.12 L37 258.38 L40 258.67 L43 258.98 L46 259.32 L49 259.68 L52 260.06 L55 260.46 L58 260.89 L61 261.33 L64 261.79 L67 262.27 L70 262.77 L73 263.29 L76 263.82 L79 264.36 L82 264.91 L85 265.48 L88 266.06 L91 266.64 L94 267.23 L97 267.83 L100 268.43 L103 269.04 L106 269.65 L109 270.26 L112 270.87 L115 271.47 L118 272.08 L121 272.68 L124 273.27 L127 273.86 L130 274.43 L133 275.00 L136 275.56 L139 276.10 L142 276.63 L145 277.15 L148 277.65 L151 278.14 L154 278.60 L157 279.05 L160 279.48 L163 279.88 L166 280.27 L169 280.63 L172 280.97 L175 281.28 L178 281.57 L181 281.84 L184 282.08 L187 282.29 L190 282.47 L193 282.63 L196 282.76 L199 282.86 L202 282.94 L205 282.98 L208 283.00 L211 282.99 L214 282.95 L217 282.88 L220 282.78 L223 282.66 L226 282.50 L229 282.32 L232 282.12 L235 281.88 L238 281.62 L241 281.34 L244 281.02 L247 280.69 L250 280.33 L253 279.95 L256 279.55 L259 279.12 L262 278.68 L265 278.22 L268 277.74 L271 277.24 L274 276.72 L277 276.19 L280 275.65 L283 275.10 L286 274.53 L289 273.96 L292 273.37 L295 272.78 L298 272.18 L301 271.58 L304 270.97 L307 270.36 L310 269.75 L313 269.14 L316 268.54 L319 267.93 L322 267.33 L325 266.74 L328 266.16 L331 265.58 L334 265.01 L337 264.45 L340 263.91 L343 263.38 L346 262.86 L349 262.36 L352 261.87 L355 261.41 L358 260.96 L361 260.53 L364 260.12 L367 259.74 L370 259.38 L373 259.04 L376 258.72 L379 258.43 L382 258.17 L385 257.93 L388 257.71 L391 257.53 L394 257.37 L397 257.24 L400 257.14 L403 257.06 L406 257.02 L409 257.00 L412 257.01 L415 257.05 L418 257.12 L421 257.22 L424 257.34 L427 257.49 L430 257.67 L433 257.88 L436 258.11 L439 258.37 L442 258.66 L445 258.97 L448 259.30 L451 259.66 L454 260.04 L457 260.44 L460 260.87 L463 261.31 L466 261.77 L469 262.25 L472 262.75 L475 263.27 L478 263.79 L481 264.34 L484 264.89 L487 265.46 L490 266.03 L493 266.62 L496 267.21 L499 267.81 L502 268.41 L505 269.02 L508 269.62 L511 270.23 L514 270.84 L517 271.45 L520 272.05 L523 272.65 L526 273.25 L529 273.83 L532 274.41 L535 274.98 L538 275.54 L541 276.08 L544 276.61 L547 277.13 L550 277.63 L553 278.12 L556 278.58 L559 279.03 L560 320 L-20 320 Z" fill="#2A5240"></path><path d="M-20 258.16 L-17 257.92 L-14 257.71 L-11 257.52 L-8 257.36 L-5 257.24 L-2 257.13 L1 257.06 L4 257.02 L7 257.00 L10 257.01 L13 257.05 L16 257.12 L19 257.22 L22 257.35 L25 257.50 L28 257.68 L31 257.89 L34 258.12 L37 258.38 L40 258.67 L43 258.98 L46 259.32 L49 259.68 L52 260.06 L55 260.46 L58 260.89 L61 261.33 L64 261.79 L67 262.27 L70 262.77 L73 263.29 L76 263.82 L79 264.36 L82 264.91 L85 265.48 L88 266.06 L91 266.64 L94 267.23 L97 267.83 L100 268.43 L103 269.04 L106 269.65 L109 270.26 L112 270.87 L115 271.47 L118 272.08 L121 272.68 L124 273.27 L127 273.86 L130 274.43 L133 275.00 L136 275.56 L139 276.10 L142 276.63 L145 277.15 L148 277.65 L151 278.14 L154 278.60 L157 279.05 L160 279.48 L163 279.88 L166 280.27 L169 280.63 L172 280.97 L175 281.28 L178 281.57 L181 281.84 L184 282.08 L187 282.29 L190 282.47 L193 282.63 L196 282.76 L199 282.86 L202 282.94 L205 282.98 L208 283.00 L211 282.99 L214 282.95 L217 282.88 L220 282.78 L223 282.66 L226 282.50 L229 282.32 L232 282.12 L235 281.88 L238 281.62 L241 281.34 L244 281.02 L247 280.69 L250 280.33 L253 279.95 L256 279.55 L259 279.12 L262 278.68 L265 278.22 L268 277.74 L271 277.24 L274 276.72 L277 276.19 L280 275.65 L283 275.10 L286 274.53 L289 273.96 L292 273.37 L295 272.78 L298 272.18 L301 271.58 L304 270.97 L307 270.36 L310 269.75 L313 269.14 L316 268.54 L319 267.93 L322 267.33 L325 266.74 L328 266.16 L331 265.58 L334 265.01 L337 264.45 L340 263.91 L343 263.38 L346 262.86 L349 262.36 L352 261.87 L355 261.41 L358 260.96 L361 260.53 L364 260.12 L367 259.74 L370 259.38 L373 259.04 L376 258.72 L379 258.43 L382 258.17 L385 257.93 L388 257.71 L391 257.53 L394 257.37 L397 257.24 L400 257.14 L403 257.06 L406 257.02 L409 257.00 L412 257.01 L415 257.05 L418 257.12 L421 257.22 L424 257.34 L427 257.49 L430 257.67 L433 257.88 L436 258.11 L439 258.37 L442 258.66 L445 258.97 L448 259.30 L451 259.66 L454 260.04 L457 260.44 L460 260.87 L463 261.31 L466 261.77 L469 262.25 L472 262.75 L475 263.27 L478 263.79 L481 264.34 L484 264.89 L487 265.46 L490 266.03 L493 266.62 L496 267.21 L499 267.81 L502 268.41 L505 269.02 L508 269.62 L511 270.23 L514 270.84 L517 271.45 L520 272.05 L523 272.65 L526 273.25 L529 273.83 L532 274.41 L535 274.98 L538 275.54 L541 276.08 L544 276.61 L547 277.13 L550 277.63 L553 278.12 L556 278.58 L559 279.03 " fill="none" stroke="#386250" stroke-width="1.1" opacity="0.6"></path></svg>